<svg width="270" height="270" viewBox="0 0 270 270" fill="none" xmlns="http://www.w3.org/2000/svg">
<path d="M152.186 110.45L94.8295 111.45C88.8485 111.45 84 116.298 84 122.279C84 128.26 88.8485 133.109 94.8295 133.109H115.726C120.272 127.226 134 114 152.186 110.45Z" fill="#4B75D5"/>
<path d="M116.715 177.17C116.006 179.962 118.003 183.587 120.505 185.016C123.157 186.532 126.479 188.486 129.323 190.175C131.233 191.31 132.106 193.609 131.443 195.729L124.55 217.785C123.307 222.059 115.566 222.758 108.507 216.982C99.6828 209.763 96.3473 202.144 98.0785 185.697C99.1902 175.136 102.998 150.778 120.714 132.229C120.877 132.058 121.041 131.888 121.207 131.718C129.005 123.717 139.44 116.844 153.429 112.699C155.765 112.006 158.031 111.607 160.207 111.45C178.203 110.154 190.045 125.486 184.714 129.545L166.668 145.509C165.015 146.97 162.581 147.122 160.761 145.876L151.152 139.302C149.605 138.243 147.585 138.163 146.03 139.209C136.486 145.624 121.173 159.592 116.715 177.17Z" fill="#2759CD"/>
<path d="M135.036 48C147.084 48 157.299 55.8457 160.851 66.7066C161.72 69.3656 162.191 72.2052 162.191 75.1547C162.191 77.4446 161.907 79.6683 161.374 81.7926C158.412 93.5811 147.743 102.309 135.036 102.309C131.415 102.309 127.96 101.601 124.801 100.315C123.109 99.6255 121.501 98.7705 119.999 97.7699C114.467 94.0841 110.364 88.4223 108.698 81.7926C108.427 80.7136 108.221 79.6089 108.083 78.4829C107.95 77.3922 107.881 76.2815 107.881 75.1547C107.881 72.2052 108.351 69.3656 109.221 66.7066C112.773 55.8457 122.988 48 135.036 48Z" fill="#2759CD"/>
</svg>
