<svg width="30" height="30" viewBox="0 0 30 30" fill="none" xmlns="http://www.w3.org/2000/svg">
<path d="M18.1679 25.9897H26.2461C26.7847 25.9897 27.2116 25.8195 27.527 25.4791C27.8423 25.1388 28 24.6832 28 24.1125V10.9517C28 10.381 27.8423 9.92545 27.527 9.58508C27.2116 9.24472 26.7847 9.07453 26.2461 9.07453H18.9332V10.7351H25.6827C25.8882 10.7351 26.0406 10.7832 26.1399 10.8795C26.2391 10.9758 26.2887 11.127 26.2887 11.3333V23.7309C26.2887 23.9372 26.2391 24.0884 26.1399 24.1847C26.0406 24.281 25.8882 24.3291 25.6827 24.3291H18.1679V25.9897ZM22.2495 14.7472H23.9608C24.2017 14.7472 24.3222 14.6304 24.3222 14.3966V12.7876C24.3222 12.5538 24.2017 12.4369 23.9608 12.4369H22.2495C22.0157 12.4369 21.8988 12.5538 21.8988 12.7876V14.3966C21.8988 14.6304 22.0157 14.7472 22.2495 14.7472ZM22.2495 18.6873H23.9608C24.2017 18.6873 24.3222 18.5704 24.3222 18.3366V16.7275C24.3222 16.4938 24.2017 16.3769 23.9608 16.3769H22.2495C22.0157 16.3769 21.8988 16.4938 21.8988 16.7275V18.3366C21.8988 18.5704 22.0157 18.6873 22.2495 18.6873ZM22.2495 22.6273H23.9608C24.2017 22.6273 24.3222 22.5104 24.3222 22.2766V20.6676C24.3222 20.4338 24.2017 20.3169 23.9608 20.3169H22.2495C22.0157 20.3169 21.8988 20.4338 21.8988 20.6676V22.2766C21.8988 22.5104 22.0157 22.6273 22.2495 22.6273ZM3 24.1125C3 24.6832 3.15767 25.1388 3.473 25.4791C3.78833 25.8195 4.21882 25.9897 4.76445 25.9897H18.1679C18.7064 25.9897 19.1334 25.8195 19.4487 25.4791C19.7641 25.1388 19.9218 24.6832 19.9218 24.1125V5.87717C19.9218 5.29958 19.7641 4.84232 19.4487 4.50539C19.1334 4.16846 18.7064 4 18.1679 4H4.76445C4.21882 4 3.78833 4.16846 3.473 4.50539C3.15767 4.84232 3 5.29958 3 5.87717V24.1125ZM4.71131 23.7309V6.25879C4.71131 6.05251 4.76091 5.90123 4.86011 5.80497C4.95932 5.7087 5.11521 5.66057 5.3278 5.66057H17.6046C17.8101 5.66057 17.9624 5.7087 18.0616 5.80497C18.1608 5.90123 18.2104 6.05251 18.2104 6.25879V23.7309C18.2104 23.9372 18.1608 24.0884 18.0616 24.1847C17.9624 24.281 17.8101 24.3291 17.6046 24.3291H5.3278C5.11521 24.3291 4.95932 24.281 4.86011 24.1847C4.76091 24.0884 4.71131 23.9372 4.71131 23.7309ZM7.76189 25.113H9.15433V21.6681C9.15433 21.448 9.26771 21.338 9.49446 21.338H13.4273C13.654 21.338 13.7674 21.448 13.7674 21.6681V25.113H15.1599V21.2865C15.1599 20.8395 15.0571 20.5112 14.8516 20.3014C14.6461 20.0917 14.3237 19.9869 13.8843 19.9869H9.03741C8.60515 19.9869 8.2845 20.0917 8.07546 20.3014C7.86642 20.5112 7.76189 20.8395 7.76189 21.2865V25.113ZM7.93196 10.1678H10.0047C10.2952 10.1678 10.4405 10.0269 10.4405 9.74496V7.79559C10.4405 7.51367 10.2952 7.37271 10.0047 7.37271H7.93196C7.6556 7.37271 7.51742 7.51367 7.51742 7.79559V9.74496C7.51742 10.0269 7.6556 10.1678 7.93196 10.1678ZM12.9171 10.1678H14.9792C15.2697 10.1678 15.4149 10.0269 15.4149 9.74496V7.79559C15.4149 7.51367 15.2697 7.37271 14.9792 7.37271H12.9171C12.6336 7.37271 12.4919 7.51367 12.4919 7.79559V9.74496C12.4919 10.0269 12.6336 10.1678 12.9171 10.1678ZM7.93196 14.2522H10.0047C10.2952 14.2522 10.4405 14.1113 10.4405 13.8293V11.88C10.4405 11.5981 10.2952 11.4571 10.0047 11.4571H7.93196C7.6556 11.4571 7.51742 11.5981 7.51742 11.88V13.8293C7.51742 14.1113 7.6556 14.2522 7.93196 14.2522ZM12.9171 14.2522H14.9792C15.2697 14.2522 15.4149 14.1113 15.4149 13.8293V11.88C15.4149 11.5981 15.2697 11.4571 14.9792 11.4571H12.9171C12.6336 11.4571 12.4919 11.5981 12.4919 11.88V13.8293C12.4919 14.1113 12.6336 14.2522 12.9171 14.2522ZM7.93196 18.3366H10.0047C10.2952 18.3366 10.4405 18.1957 10.4405 17.9137V15.9644C10.4405 15.6824 10.2952 15.5415 10.0047 15.5415H7.93196C7.6556 15.5415 7.51742 15.6824 7.51742 15.9644V17.9137C7.51742 18.1957 7.6556 18.3366 7.93196 18.3366ZM12.9171 18.3366H14.9792C15.2697 18.3366 15.4149 18.1957 15.4149 17.9137V15.9644C15.4149 15.6824 15.2697 15.5415 14.9792 15.5415H12.9171C12.6336 15.5415 12.4919 15.6824 12.4919 15.9644V17.9137C12.4919 18.1957 12.6336 18.3366 12.9171 18.3366Z" fill="#111111"/>
</svg>
