<svg width="30" height="30" viewBox="0 0 30 30" fill="none" xmlns="http://www.w3.org/2000/svg">
<path d="M10.6871 11.1813L9.92121 10.4154M13.8949 24.8768L5.98871 16.9707C5.58788 16.5698 5.36038 16.0282 5.3528 15.4627L5.24988 7.34958C5.24769 7.20458 5.27463 7.06061 5.32912 6.92621C5.3836 6.79182 5.46451 6.66972 5.56706 6.56718C5.6696 6.46463 5.79169 6.38372 5.92609 6.32924C6.06049 6.27475 6.20446 6.24781 6.34946 6.25L14.4625 6.35292C15.029 6.35959 15.5703 6.58787 15.9705 6.98883L23.8767 14.895C24.6069 15.6241 25.168 17.0173 24.336 17.8493L16.8502 25.3351C16.0171 26.1682 14.624 25.6059 13.8949 24.8768Z" stroke="black" stroke-width="1.5" stroke-linecap="round" stroke-linejoin="round"/>
</svg>
