<svg width="30" height="30" viewBox="0 0 30 30" fill="none" xmlns="http://www.w3.org/2000/svg">
<path d="M13.5628 19.3218C13.4437 19.3218 13.3147 19.2967 13.1758 19.2464C13.0368 19.1962 12.9177 19.1159 12.8185 19.0054L9.96062 15.8255C9.91103 15.7653 9.86886 15.6773 9.83411 15.5618C9.79936 15.4463 9.78198 15.3333 9.78198 15.2228C9.78198 14.9515 9.8713 14.7254 10.0499 14.5445C10.2286 14.3638 10.4469 14.2734 10.7049 14.2734C10.8636 14.2734 11.0025 14.306 11.1216 14.3712C11.2407 14.4366 11.3399 14.5145 11.4193 14.6049L13.5329 16.9105L17.4477 11.3949C17.6461 11.1137 17.9091 10.973 18.2366 10.973C18.4847 10.973 18.703 11.0635 18.8916 11.2443C19.0801 11.4251 19.1743 11.6461 19.1743 11.9073C19.1743 11.9877 19.1569 12.0781 19.1222 12.1786C19.0875 12.2791 19.0355 12.3795 18.9659 12.4799L14.3517 18.9752C14.1829 19.2062 13.92 19.3218 13.5628 19.3218Z" fill="#111111"/>
<path fill-rule="evenodd" clip-rule="evenodd" d="M18.372 5.88322L16.9157 3.9541C15.9554 2.68197 14.0446 2.68197 13.0843 3.9541L11.628 5.88322L9.27242 5.34152C7.71905 4.9843 6.25536 6.21247 6.33741 7.80428L6.46183 10.2182L4.30914 11.3173C2.88958 12.0422 2.55778 13.9239 3.64383 15.0905L5.29075 16.8597L4.34824 19.0854C3.72671 20.5532 4.68206 22.2079 6.26393 22.4035L8.66274 22.7001L9.37141 25.011C9.83874 26.5348 11.6342 27.1883 12.9717 26.3214L15 25.0067L17.0283 26.3214C18.3658 27.1883 20.1613 26.5348 20.6286 25.011L21.3373 22.7001L23.7361 22.4035C25.3179 22.2079 26.2733 20.5532 25.6518 19.0854L24.7092 16.8597L26.3562 15.0905C27.4422 13.9239 27.1104 12.0422 25.6909 11.3173L23.5382 10.2182L23.6626 7.80428C23.7446 6.21248 22.281 4.9843 20.7276 5.34152L18.372 5.88322ZM15.8329 4.7715C15.4154 4.21839 14.5846 4.21839 14.1671 4.77149L12.5885 6.86257C12.3406 7.19101 11.9228 7.34308 11.5217 7.25085L8.96837 6.66368C8.29299 6.50836 7.6566 7.04235 7.69228 7.73444L7.82715 10.351C7.84833 10.762 7.62603 11.147 7.25952 11.3341L4.9261 12.5256C4.30889 12.8408 4.16464 13.6589 4.63683 14.1661L6.42203 16.0838C6.70242 16.385 6.77963 16.8229 6.61916 17.2018L5.59752 19.6144C5.32728 20.2526 5.74265 20.972 6.43042 21.0571L9.03063 21.3786C9.43904 21.4291 9.77963 21.7149 9.90029 22.1083L10.6685 24.6132C10.8716 25.2758 11.6523 25.5599 12.2338 25.183L14.4324 23.7579C14.7777 23.5341 15.2223 23.5341 15.5676 23.7579L17.7662 25.183C18.3477 25.5599 19.1284 25.2758 19.3315 24.6132L20.0997 22.1083C20.2204 21.7149 20.561 21.4291 20.9694 21.3786L23.5696 21.0571C24.2573 20.972 24.6727 20.2526 24.4025 19.6144L23.3808 17.2018C23.2204 16.8229 23.2976 16.385 23.578 16.0838L25.3632 14.1661C25.8354 13.6589 25.6911 12.8408 25.0739 12.5256L22.7405 11.3341C22.374 11.147 22.1517 10.762 22.1729 10.351L22.3077 7.73444C22.3434 7.04235 21.707 6.50836 21.0316 6.66368L18.4783 7.25085C18.0772 7.34308 17.6594 7.19101 17.4115 6.86257L15.8329 4.7715Z" fill="#111111"/>
</svg>
