<svg width="23" height="23" viewBox="0 0 23 23" fill="none" xmlns="http://www.w3.org/2000/svg">
<path d="M20.3973 0.778809C20.5699 0.758227 20.7427 0.768927 20.9149 0.810059L21.0878 0.864746C21.2545 0.931019 21.4061 1.03261 21.5409 1.16748L21.6591 1.30225C21.7673 1.44284 21.8449 1.60101 21.8905 1.77588L21.9247 1.94971C21.9398 2.06584 21.9398 2.18221 21.9247 2.29834L21.8905 2.47314C21.8448 2.648 21.7673 2.8062 21.6591 2.94678L21.5409 3.08154L13.1053 11.5151L21.5409 19.9614L21.6591 20.0972C21.7669 20.2385 21.8426 20.3977 21.8846 20.5737C21.9258 20.7459 21.9364 20.9188 21.9159 21.0913L21.8846 21.2642C21.8285 21.4989 21.7133 21.7041 21.5409 21.8765L21.5399 21.8755C21.411 22.0111 21.2629 22.1132 21.0956 22.1792L20.9208 22.2339C20.7449 22.275 20.5694 22.2837 20.3954 22.2603L20.2216 22.2261C19.9884 22.1653 19.7848 22.048 19.6132 21.8765L11.1796 13.4419L2.74597 21.8765C2.61724 22.0051 2.4702 22.1028 2.30652 22.1694L2.13757 22.2261C1.96359 22.2715 1.7885 22.283 1.61414 22.2603L1.44031 22.2261C1.26607 22.1806 1.10641 22.1035 0.961792 21.9966L0.822144 21.8794C0.685398 21.7503 0.582195 21.6021 0.515503 21.436L0.460815 21.2642C0.405607 21.0332 0.408533 20.8013 0.468628 20.5708L0.524292 20.4009C0.59099 20.2372 0.689508 20.0902 0.818237 19.9614L9.25183 11.5151L0.818237 3.08154C0.688979 2.95228 0.59145 2.80481 0.527222 2.64014L0.474487 2.46924C0.419603 2.23952 0.419556 2.00852 0.474487 1.77881L0.527222 1.60889C0.591419 1.44416 0.688982 1.29678 0.818237 1.16748C0.98975 0.987002 1.19471 0.866453 1.43054 0.810059L1.60339 0.778809C1.77682 0.758241 1.95176 0.769086 2.12683 0.810059L2.30164 0.86377C2.46882 0.929795 2.6171 1.03189 2.74597 1.16748L11.1796 9.60107L19.6093 1.17041L19.745 1.04541C19.8865 0.931673 20.0467 0.852629 20.2245 0.810059L20.3973 0.778809Z" fill="#FF3B30" stroke="#FF3B30" stroke-width="0.326866" stroke-linejoin="round"/>
</svg>
