<svg width="30" height="30" viewBox="0 0 30 30" fill="none" xmlns="http://www.w3.org/2000/svg">
<path d="M14.5293 24.4082H26.7949C28.3965 24.4082 29.1973 23.8874 29.1973 22.8457C29.1973 22.2077 29.002 21.5274 28.6113 20.8047C28.2207 20.082 27.6559 19.4001 26.917 18.7588C26.1781 18.1175 25.2829 17.5951 24.2314 17.1914C23.18 16.7877 21.9902 16.5859 20.6621 16.5859C19.3405 16.5859 18.154 16.7877 17.1025 17.1914C16.0511 17.5951 15.1559 18.1175 14.417 18.7588C13.6781 19.4001 13.1133 20.082 12.7227 20.8047C12.332 21.5274 12.1367 22.2077 12.1367 22.8457C12.1367 23.8874 12.9342 24.4082 14.5293 24.4082ZM14.0605 22.9336C13.9368 22.9336 13.8473 22.9141 13.792 22.875C13.7367 22.8359 13.709 22.7643 13.709 22.6602C13.709 22.2631 13.8604 21.8024 14.1631 21.2783C14.4658 20.7542 14.9134 20.2481 15.5059 19.7598C16.0983 19.2715 16.8258 18.8662 17.6885 18.5439C18.5511 18.2216 19.5423 18.0605 20.6621 18.0605C21.7819 18.0605 22.7747 18.2216 23.6406 18.5439C24.5065 18.8662 25.2357 19.2715 25.8281 19.7598C26.4206 20.2481 26.8682 20.7542 27.1709 21.2783C27.4736 21.8024 27.625 22.2631 27.625 22.6602C27.625 22.7643 27.5973 22.8359 27.542 22.875C27.4867 22.9141 27.3939 22.9336 27.2637 22.9336H14.0605ZM20.6719 15.375C21.4466 15.375 22.153 15.1667 22.791 14.75C23.429 14.3333 23.9384 13.7783 24.3193 13.085C24.7002 12.3916 24.8906 11.625 24.8906 10.7852C24.8906 9.95183 24.7018 9.19824 24.3242 8.52441C23.9466 7.85058 23.4388 7.3151 22.8008 6.91797C22.1628 6.52083 21.4532 6.32227 20.6719 6.32227C19.8972 6.32227 19.1908 6.52409 18.5527 6.92773C17.9147 7.33138 17.4053 7.87174 17.0244 8.54883C16.6435 9.22591 16.4531 9.97786 16.4531 10.8047C16.4531 11.638 16.6435 12.4014 17.0244 13.0947C17.4053 13.7881 17.9147 14.3415 18.5527 14.7549C19.1908 15.1683 19.8972 15.375 20.6719 15.375ZM20.6719 13.9004C20.1966 13.9004 19.7588 13.762 19.3584 13.4853C18.958 13.2087 18.6357 12.8359 18.3916 12.3672C18.1475 11.8984 18.0254 11.3776 18.0254 10.8047C18.0254 10.2383 18.1442 9.72884 18.3818 9.27637C18.6195 8.8239 18.9401 8.4642 19.3438 8.19727C19.7474 7.93034 20.1901 7.79688 20.6719 7.79688C21.1602 7.79688 21.6045 7.92709 22.0049 8.1875C22.4053 8.44791 22.7243 8.80436 22.9619 9.25684C23.1996 9.70931 23.3184 10.2188 23.3184 10.7852C23.3184 11.3581 23.1979 11.8805 22.957 12.3525C22.7161 12.8245 22.3955 13.2005 21.9951 13.4805C21.5947 13.7604 21.1536 13.9004 20.6719 13.9004ZM3.98242 24.4082H11.6484C11.4141 24.278 11.222 24.0794 11.0723 23.8125C10.9225 23.5456 10.8639 23.2624 10.8965 22.9629H3.74805C3.64388 22.9629 3.56901 22.9417 3.52344 22.8994C3.47787 22.8571 3.45508 22.7903 3.45508 22.6992C3.45508 22.0937 3.61296 21.5111 3.92871 20.9512C4.24446 20.3913 4.67903 19.89 5.23242 19.4473C5.78581 19.0046 6.42057 18.6546 7.13672 18.3975C7.85287 18.1403 8.61133 18.0117 9.41211 18.0117C9.82226 18.0117 10.2178 18.0443 10.5986 18.1094C10.9795 18.1745 11.3441 18.2689 11.6924 18.3926C12.0407 18.5163 12.3743 18.6725 12.6934 18.8613C12.8431 18.666 13.0091 18.4821 13.1914 18.3096C13.3737 18.1371 13.5755 17.9759 13.7969 17.8262C13.3737 17.5462 12.9261 17.3134 12.4541 17.1279C11.9821 16.9424 11.4922 16.8024 10.9844 16.708C10.4766 16.6136 9.95248 16.5664 9.41211 16.5664C8.38998 16.5664 7.43132 16.7357 6.53613 17.0742C5.64095 17.4127 4.85319 17.875 4.17285 18.4609C3.49251 19.0468 2.96028 19.7109 2.57617 20.4531C2.19206 21.1953 2 21.9733 2 22.7871C2 23.3275 2.16602 23.7328 2.49805 24.0029C2.83008 24.2731 3.32487 24.4082 3.98242 24.4082ZM9.42188 15.4531C10.0924 15.4531 10.7044 15.2725 11.2578 14.9111C11.8112 14.5498 12.2539 14.0648 12.5859 13.456C12.918 12.8473 13.084 12.1719 13.084 11.4297C13.084 10.707 12.9196 10.0495 12.5908 9.45703C12.2621 8.86458 11.821 8.39258 11.2676 8.04102C10.7142 7.68945 10.099 7.51367 9.42188 7.51367C8.75131 7.51367 8.1377 7.69108 7.58105 8.0459C7.02441 8.40071 6.58008 8.8776 6.24805 9.47656C5.91602 10.0755 5.75326 10.7331 5.75977 11.4492C5.75977 12.1849 5.92578 12.8555 6.25781 13.4609C6.58984 14.0664 7.03255 14.5498 7.58594 14.9111C8.13933 15.2725 8.75131 15.4531 9.42188 15.4531ZM9.42188 13.998C9.02474 13.998 8.65853 13.8841 8.32324 13.6562C7.98795 13.4284 7.7194 13.1208 7.51758 12.7334C7.31575 12.346 7.21484 11.918 7.21484 11.4492C7.21484 10.9935 7.31413 10.5768 7.5127 10.1992C7.71127 9.82161 7.97819 9.52213 8.31348 9.30078C8.64877 9.07943 9.01823 8.96875 9.42188 8.96875C9.83203 8.96875 10.2048 9.0778 10.54 9.2959C10.8753 9.514 11.1423 9.8086 11.3408 10.1797C11.5394 10.5508 11.6387 10.9674 11.6387 11.4297C11.6387 11.9049 11.5378 12.3379 11.3359 12.7285C11.1341 13.1191 10.8639 13.4284 10.5254 13.6562C10.1868 13.8841 9.81901 13.998 9.42188 13.998Z" fill="#111111"/>
</svg>
