<svg width="30" height="30" viewBox="0 0 30 30" fill="none" xmlns="http://www.w3.org/2000/svg">
<path d="M15.9551 15.9277C15.9551 15.7324 15.8818 15.5632 15.7353 15.4199C15.5889 15.2767 15.4147 15.2051 15.2129 15.2051C15.0111 15.2051 14.8369 15.2767 14.6904 15.4199C14.5439 15.5632 14.4707 15.7324 14.4707 15.9277V19.4727L14.5293 21.0645L13.6992 20.2051L12.8203 19.3066C12.7487 19.235 12.6657 19.1797 12.5713 19.1406C12.4769 19.1015 12.3841 19.082 12.293 19.082C12.0977 19.082 11.9349 19.1455 11.8047 19.2725C11.6745 19.3994 11.6094 19.5606 11.6094 19.7559C11.6094 19.8666 11.6305 19.9642 11.6729 20.0488C11.7152 20.1335 11.7754 20.2116 11.8535 20.2832L14.666 22.8711C14.7702 22.9688 14.863 23.0355 14.9443 23.0713C15.0257 23.1071 15.1152 23.125 15.2129 23.125C15.3105 23.125 15.4001 23.1071 15.4815 23.0713C15.5628 23.0355 15.6556 22.9688 15.7598 22.8711L18.5723 20.2832C18.6504 20.2116 18.7106 20.1335 18.7529 20.0488C18.7952 19.9642 18.8164 19.8666 18.8164 19.7559C18.8164 19.5606 18.7513 19.3994 18.6211 19.2725C18.4909 19.1455 18.3281 19.082 18.1328 19.082C18.0351 19.082 17.9407 19.1015 17.8496 19.1406C17.7585 19.1797 17.6771 19.235 17.6055 19.3066L16.7266 20.2051L15.8965 21.0645L15.9551 19.4727V15.9277ZM10.0273 25.9375H20.3984C21.4075 25.9375 22.1644 25.682 22.6689 25.1709C23.1735 24.6598 23.4258 23.8965 23.4258 22.8809V14.0137C23.4258 13.5905 23.403 13.2357 23.3574 12.9492C23.3119 12.6628 23.2224 12.4007 23.0889 12.1631C22.9554 11.9255 22.7585 11.6732 22.498 11.4062L17.1172 5.92773C16.8698 5.67383 16.6289 5.48014 16.3945 5.34668C16.1602 5.21322 15.9046 5.12207 15.6279 5.07324C15.3512 5.02441 15.0306 5 14.666 5H10.0273C9.01823 5 8.26139 5.25716 7.75684 5.77148C7.25228 6.28581 7 7.05078 7 8.06641V22.8809C7 23.903 7.25228 24.668 7.75684 25.1758C8.26139 25.6836 9.01823 25.9375 10.0273 25.9375ZM10.0957 24.3652C9.5944 24.3652 9.21517 24.235 8.95801 23.9746C8.70085 23.7142 8.57227 23.3399 8.57227 22.8516V8.0957C8.57227 7.61393 8.70085 7.23959 8.95801 6.97266C9.21517 6.70573 9.59766 6.57227 10.1055 6.57227H14.4512V12.2461C14.4512 12.8581 14.6042 13.3171 14.9102 13.623C15.2161 13.929 15.6751 14.082 16.2871 14.082H21.8535V22.8516C21.8535 23.3399 21.7249 23.7142 21.4678 23.9746C21.2106 24.235 20.8281 24.3652 20.3203 24.3652H10.0957ZM16.4629 12.6074C16.2676 12.6074 16.1292 12.5651 16.0478 12.4805C15.9665 12.3958 15.9258 12.2559 15.9258 12.0606V6.875L21.5508 12.6074H16.4629Z" fill="#111111"/>
</svg>
