<svg width="30" height="30" viewBox="0 0 30 30" fill="none" xmlns="http://www.w3.org/2000/svg">
<path d="M14.6189 20.8834C14.803 20.8834 14.9751 20.8551 15.135 20.7984C15.2949 20.7417 15.4427 20.6566 15.5784 20.5432L26.8453 10.9077C27.1069 10.689 27.2377 10.4257 27.2377 10.1179C27.2377 9.90726 27.1796 9.71892 27.0632 9.55286C26.947 9.3868 26.7896 9.25314 26.5909 9.15189C26.3922 9.05063 26.1669 9 25.9149 9C25.5562 9 25.2412 9.10936 24.9699 9.32807L14.6189 18.1738L4.26791 9.32807C3.99654 9.10936 3.68155 9 3.32295 9C3.07096 9 2.84562 9.05063 2.64694 9.15189C2.44825 9.25314 2.29076 9.3868 2.17446 9.55286C2.05815 9.71892 2 9.90726 2 10.1179C2 10.4257 2.12599 10.689 2.37798 10.9077L13.6594 20.5432C13.7951 20.6566 13.9429 20.7417 14.1028 20.7984C14.2627 20.8551 14.4347 20.8834 14.6189 20.8834Z" fill="#111111"/>
</svg>
