<svg width="30" height="30" viewBox="0 0 30 30" fill="none" xmlns="http://www.w3.org/2000/svg">
<path d="M15.8066 16.7773H8.39453C8.21875 16.7773 8.07227 16.8343 7.95508 16.9482C7.83789 17.0621 7.7793 17.2037 7.7793 17.373C7.7793 17.5423 7.83789 17.6856 7.95508 17.8027C8.07227 17.9199 8.21875 17.9785 8.39453 17.9785H15.8066C15.9759 17.9785 16.1175 17.9199 16.2314 17.8027C16.3453 17.6856 16.4023 17.5423 16.4023 17.373C16.4023 17.2037 16.3453 17.0621 16.2314 16.9482C16.1175 16.8343 15.9759 16.7773 15.8066 16.7773ZM15.8066 20.1855H8.39453C8.21875 20.1855 8.07227 20.2441 7.95508 20.3613C7.83789 20.4785 7.7793 20.625 7.7793 20.8008C7.7793 20.9635 7.83789 21.1019 7.95508 21.2158C8.07227 21.3297 8.21875 21.3867 8.39453 21.3867H15.8066C15.9759 21.3867 16.1175 21.3297 16.2314 21.2158C16.3453 21.1019 16.4023 20.9635 16.4023 20.8008C16.4023 20.625 16.3453 20.4785 16.2314 20.3613C16.1175 20.2441 15.9759 20.1855 15.8066 20.1855ZM7.02734 25.9375H17.3984C18.4075 25.9375 19.1644 25.682 19.6689 25.1709C20.1735 24.6598 20.4258 23.8965 20.4258 22.8809V19.1758V16.9805V14.0137C20.4258 13.5905 20.403 13.2357 20.3574 12.9492C20.3119 12.6628 20.2224 12.4007 20.0889 12.1631C19.9554 11.9255 19.7585 11.6732 19.498 11.4062L14.1172 5.92773C13.8698 5.67383 13.6289 5.48014 13.3945 5.34668C13.1602 5.21322 12.9046 5.12207 12.6279 5.07324C12.3512 5.02441 12.0306 5 11.666 5H7.02734C6.01823 5 5.26139 5.25716 4.75684 5.77148C4.25228 6.28581 4 7.05078 4 8.06641V22.8809C4 23.903 4.25228 24.668 4.75684 25.1758C5.26139 25.6836 6.01823 25.9375 7.02734 25.9375ZM7.0957 24.3652C6.5944 24.3652 6.21517 24.235 5.95801 23.9746C5.70085 23.7142 5.57227 23.3399 5.57227 22.8516V8.0957C5.57227 7.61393 5.70085 7.23959 5.95801 6.97266C6.21517 6.70573 6.59766 6.57227 7.10547 6.57227H11.4512V12.2461C11.4512 12.8581 11.6042 13.3171 11.9102 13.623C12.2161 13.929 12.6751 14.082 13.2871 14.082H18.8535V18.5469V20.7461V22.8516C18.8535 23.3399 18.7249 23.7142 18.4678 23.9746C18.2106 24.235 17.8281 24.3652 17.3203 24.3652H7.0957ZM13.4629 12.6074C13.2676 12.6074 13.1292 12.5651 13.0478 12.4805C12.9665 12.3958 12.9258 12.2559 12.9258 12.0606V6.875L18.5508 12.6074H13.4629Z" fill="#111111"/>
<path fill-rule="evenodd" clip-rule="evenodd" d="M18.8497 20.7565L18.7151 20.8911L17.2653 21.4497C17.19 21.4789 17.122 21.4611 17.0614 21.3963C17.0007 21.3314 16.985 21.2614 17.0143 21.186L17.6105 19.7928L18.8497 18.5547V20.7565ZM20.4195 19.1882L25.5621 14.0503L24.4638 12.9458L20.4195 16.9863V19.1882ZM26.7482 12.8893L26.1144 13.5106L25.0035 12.406L25.6374 11.7784C25.7964 11.6236 25.9585 11.54 26.1238 11.5274C26.2891 11.5149 26.4428 11.5797 26.5851 11.722L26.7985 11.9353C26.9407 12.0818 27.0077 12.2366 26.9993 12.3998C26.9909 12.5629 26.9072 12.7261 26.7482 12.8893Z" fill="#111111"/>
</svg>
