<svg width="30" height="30" viewBox="0 0 30 30" fill="none" xmlns="http://www.w3.org/2000/svg">
<path d="M9.25864 23.2223L22.2679 10.2249L20.1813 8.12627L7.15998 21.1356L6.02718 23.7828C5.97153 23.9259 6.00134 24.059 6.11661 24.1822C6.23188 24.3054 6.36105 24.3393 6.50415 24.2837L9.25864 23.2223ZM23.3173 9.19946L24.5216 8.01895C24.8237 7.70892 24.9827 7.39889 24.9987 7.08886C25.0145 6.77883 24.8873 6.4847 24.6171 6.20647L24.2116 5.80105C23.9413 5.53077 23.6492 5.40755 23.3352 5.4314C23.0212 5.45525 22.7131 5.61424 22.411 5.90837L21.2067 7.10079L23.3173 9.19946Z" fill="#111111"/>
</svg>
