<svg width="30" height="30" viewBox="0 0 30 30" fill="none" xmlns="http://www.w3.org/2000/svg">
<path d="M6.41305 24.3281H23.9131C24.8913 24.3281 25.6504 24.0417 26.1903 23.4689C26.7301 22.8961 27 22.0368 27 20.8912V8.65118C27 7.51292 26.7156 6.65737 26.1467 6.08455C25.5779 5.51172 24.7246 5.22531 23.587 5.22531H6.08696C5.1087 5.22531 4.34964 5.51172 3.80978 6.08455C3.26993 6.65737 3 7.51292 3 8.65118V20.8912C3 22.0368 3.28442 22.8961 3.85326 23.4689C4.4221 24.0417 5.27536 24.3281 6.41305 24.3281ZM6.34782 22.6319C5.80435 22.6319 5.38768 22.4859 5.09783 22.1939C4.80797 21.902 4.66304 21.4677 4.66304 20.8912V8.65118C4.66304 8.08205 4.80797 7.65151 5.09783 7.35955C5.38768 7.06759 5.80435 6.92161 6.34782 6.92161H23.6522C24.1884 6.92161 24.6032 7.06759 24.8968 7.35955C25.1903 7.65151 25.337 8.08575 25.337 8.66227V20.9022C25.337 21.4714 25.1903 21.902 24.8968 22.1939C24.6032 22.4859 24.1884 22.6319 23.6522 22.6319H6.34782ZM15.0218 17.7315C15.4058 17.7315 15.7826 17.6464 16.1522 17.4763C16.5218 17.3064 16.8986 17.0292 17.2826 16.6449L26.1087 7.79749L24.9783 6.63336L16.3369 15.3366C16.0978 15.5731 15.8714 15.7468 15.6576 15.8577C15.4439 15.9686 15.2319 16.024 15.0218 16.024C14.8043 16.024 14.5887 15.9667 14.375 15.8522C14.1612 15.7376 13.9384 15.5658 13.7065 15.3366L5.02174 6.589L3.88044 7.75313L12.7609 16.6449C13.1377 17.0292 13.5127 17.3064 13.8859 17.4763C14.2591 17.6464 14.6377 17.7315 15.0218 17.7315ZM24.8695 22.8757L26 21.7116L18.9674 14.6271L17.837 15.7801L24.8695 22.8757ZM4.03261 21.7227L5.16304 22.8869L12.2065 15.7801L11.0652 14.6271L4.03261 21.7227Z" fill="#111111"/>
</svg>
