<svg width="30" height="30" viewBox="0 0 30 30" fill="none" xmlns="http://www.w3.org/2000/svg">
<path d="M4 17.8529C4 18.3778 4.13024 18.8571 4.39071 19.2906C4.65118 19.7241 4.99982 20.0702 5.43661 20.3287C5.87341 20.5872 6.35628 20.7164 6.88524 20.7164C7.41421 20.7164 7.89708 20.5872 8.33388 20.3287C8.77067 20.0702 9.12131 19.7241 9.38579 19.2906C9.65028 18.8571 9.78252 18.3778 9.78252 17.8529C9.78252 17.3279 9.65028 16.8486 9.38579 16.415C9.12131 15.9815 8.77067 15.6355 8.33388 15.377C7.89708 15.1185 7.41421 14.9892 6.88524 14.9892C6.35628 14.9892 5.87341 15.1185 5.43661 15.377C4.99982 15.6355 4.65118 15.9815 4.39071 16.415C4.13024 16.8486 4 17.3279 4 17.8529ZM5.47869 17.8529C5.47869 17.4631 5.61694 17.133 5.89345 16.8624C6.16995 16.592 6.50455 16.4568 6.89727 16.4568C7.28998 16.4568 7.62258 16.592 7.89508 16.8624C8.16757 17.133 8.30382 17.4631 8.30382 17.8529C8.30382 18.2506 8.16757 18.5827 7.89508 18.8491C7.62258 19.1156 7.28998 19.2489 6.89727 19.2489C6.50455 19.2489 6.16995 19.1156 5.89345 18.8491C5.61694 18.5827 5.47869 18.2506 5.47869 17.8529ZM6.89727 4C6.62477 4 6.39435 4.09347 6.20601 4.2804C6.01767 4.46733 5.9235 4.69602 5.9235 4.96648V15.9557H7.85902V4.96648C7.85902 4.69602 7.76485 4.46733 7.5765 4.2804C7.38816 4.09347 7.16175 4 6.89727 4ZM6.89727 25C7.16175 25 7.38816 24.9085 7.5765 24.7256C7.76485 24.5426 7.85902 24.3278 7.85902 24.0812V19.929H5.9235V24.0812C5.9235 24.3278 6.01767 24.5426 6.20601 24.7256C6.39435 24.9085 6.62477 25 6.89727 25ZM12.1027 10.9563C12.1027 11.4812 12.235 11.9605 12.4995 12.394C12.7639 12.8276 13.1146 13.1736 13.5514 13.4321C13.9882 13.6906 14.471 13.8199 15 13.8199C15.529 13.8199 16.0118 13.6906 16.4486 13.4321C16.8854 13.1736 17.234 12.8276 17.4945 12.394C17.755 11.9605 17.8852 11.4812 17.8852 10.9563C17.8852 10.4313 17.755 9.95199 17.4945 9.51846C17.234 9.08495 16.8854 8.73892 16.4486 8.4804C16.0118 8.22187 15.529 8.09261 15 8.09261C14.471 8.09261 13.9882 8.22187 13.5514 8.4804C13.1146 8.73892 12.7639 9.08495 12.4995 9.51846C12.235 9.95199 12.1027 10.4313 12.1027 10.9563ZM13.5934 10.9563C13.5934 10.5665 13.7297 10.2364 14.0022 9.96591C14.2747 9.69545 14.6073 9.56023 15 9.56023C15.4007 9.56023 15.7353 9.69545 16.0038 9.96591C16.2723 10.2364 16.4065 10.5665 16.4065 10.9563C16.4065 11.354 16.2723 11.6861 16.0038 11.9526C15.7353 12.219 15.4007 12.3523 15 12.3523C14.6073 12.3523 14.2747 12.219 14.0022 11.9526C13.7297 11.6861 13.5934 11.354 13.5934 10.9563ZM15 4C14.7275 4 14.4991 4.09148 14.3148 4.27443C14.1304 4.45739 14.0383 4.67216 14.0383 4.91875V8.90398H15.9738V4.91875C15.9738 4.67216 15.8796 4.45739 15.6913 4.27443C15.5029 4.09148 15.2725 4 15 4ZM15 25C15.2725 25 15.5029 24.9065 15.6913 24.7196C15.8796 24.5327 15.9738 24.304 15.9738 24.0335V12.8534H14.0383V24.0335C14.0383 24.304 14.1304 24.5327 14.3148 24.7196C14.4991 24.9065 14.7275 25 15 25ZM20.2295 17.8529C20.2295 18.3778 20.3598 18.8571 20.6202 19.2906C20.8807 19.7241 21.2294 20.0702 21.6661 20.3287C22.1029 20.5872 22.5858 20.7164 23.1147 20.7164C23.6437 20.7164 24.1266 20.5872 24.5634 20.3287C25.0002 20.0702 25.3488 19.7241 25.6093 19.2906C25.8698 18.8571 26 18.3778 26 17.8529C26 17.3279 25.8698 16.8486 25.6093 16.415C25.3488 15.9815 25.0002 15.6355 24.5634 15.377C24.1266 15.1185 23.6437 14.9892 23.1147 14.9892C22.5858 14.9892 22.1029 15.1185 21.6661 15.377C21.2294 15.6355 20.8807 15.9815 20.6202 16.415C20.3598 16.8486 20.2295 17.3279 20.2295 17.8529ZM21.7082 17.8529C21.7082 17.4631 21.8445 17.133 22.1169 16.8624C22.3894 16.592 22.722 16.4568 23.1147 16.4568C23.5154 16.4568 23.8501 16.592 24.1186 16.8624C24.3871 17.133 24.5213 17.4631 24.5213 17.8529C24.5213 18.2506 24.3871 18.5827 24.1186 18.8491C23.8501 19.1156 23.5154 19.2489 23.1147 19.2489C22.722 19.2489 22.3894 19.1156 22.1169 18.8491C21.8445 18.5827 21.7082 18.2506 21.7082 17.8529ZM23.1147 4C22.8422 4 22.6118 4.09347 22.4235 4.2804C22.2351 4.46733 22.1409 4.69602 22.1409 4.96648V16.0153H24.0765V4.96648C24.0765 4.69602 23.9823 4.46733 23.794 4.2804C23.6056 4.09347 23.3792 4 23.1147 4ZM23.1147 25C23.3792 25 23.6056 24.9085 23.794 24.7256C23.9823 24.5426 24.0765 24.3278 24.0765 24.0812V19.7619H22.1409V24.0812C22.1409 24.3278 22.2351 24.5426 22.4235 24.7256C22.6118 24.9085 22.8422 25 23.1147 25Z" fill="#111111"/>
</svg>
