<svg width="30" height="30" viewBox="0 0 30 30" fill="none" xmlns="http://www.w3.org/2000/svg">
<path d="M15.6341 8.87097C15.3978 8.87097 15.1954 8.95111 15.0271 9.11138C14.8588 9.27165 14.7747 9.46676 14.7747 9.69672V15.5292C14.7747 15.6546 14.7961 15.7713 14.8391 15.8793C14.8821 15.9873 14.9466 16.0971 15.0325 16.2086L17.686 19.616C17.8651 19.839 18.071 19.9697 18.3037 20.0081C18.5364 20.0464 18.7603 19.9924 18.9751 19.846C19.1756 19.7136 19.2848 19.5342 19.3027 19.3078C19.3207 19.0813 19.2473 18.8635 19.0826 18.6544L15.5052 13.9613L16.4828 16.888V9.69672C16.4828 9.46676 16.4005 9.27165 16.2358 9.11138C16.071 8.95111 15.8705 8.87097 15.6341 8.87097ZM16.0424 25.6576C17.5392 25.6576 18.9483 25.3788 20.2697 24.8213C21.591 24.2639 22.7566 23.4939 23.7665 22.5114C24.7763 21.5289 25.5676 20.3948 26.1406 19.1091C26.7135 17.8235 27 16.4525 27 14.9961C27 13.5397 26.7135 12.1687 26.1406 10.8831C25.5676 9.59742 24.7763 8.46333 23.7665 7.4808C22.7566 6.49827 21.591 5.72828 20.2697 5.17082C18.9483 4.61336 17.5392 4.33463 16.0424 4.33463C14.5455 4.33463 13.1364 4.61336 11.815 5.17082C10.4937 5.72828 9.32808 6.49653 8.31826 7.47558C7.30844 8.45462 6.51705 9.58696 5.9441 10.8726C5.37115 12.1583 5.08468 13.5293 5.08468 14.9856H6.91095C6.91095 13.7523 7.1455 12.599 7.61461 11.5259C8.08371 10.4528 8.73723 9.51205 9.57517 8.70373C10.4131 7.89541 11.3835 7.26304 12.4865 6.80662C13.5894 6.3502 14.7747 6.12199 16.0424 6.12199C17.31 6.12199 18.4953 6.3502 19.5982 6.80662C20.7011 7.26304 21.6698 7.89716 22.5041 8.70896C23.3385 9.52076 23.992 10.4632 24.4647 11.5363C24.9374 12.6095 25.1738 13.7627 25.1738 14.9961C25.1738 16.2295 24.9374 17.3845 24.4647 18.461C23.992 19.5376 23.3385 20.4818 22.5041 21.2936C21.6698 22.1054 20.7011 22.7413 19.5982 23.2013C18.4953 23.6612 17.31 23.8876 16.0424 23.8806C15.0182 23.8737 14.0478 23.7186 13.131 23.4155C12.2143 23.1123 11.3746 22.6856 10.6119 22.1351C9.84911 21.5846 9.19559 20.94 8.65128 20.2014C8.48656 19.9854 8.28782 19.8478 8.05506 19.7885C7.8223 19.7293 7.59133 19.7659 7.36215 19.8983C7.14729 20.0307 7.01659 20.2223 6.97003 20.4731C6.92349 20.724 6.99332 20.9644 7.17952 21.1944C7.8599 22.0794 8.65845 22.8581 9.57517 23.5305C10.4919 24.203 11.4981 24.7256 12.5939 25.0983C13.6897 25.4712 14.8392 25.6576 16.0424 25.6576ZM3.76331 12.9788C3.50548 12.9788 3.31211 13.0293 3.18319 13.1303C3.05428 13.2314 2.9934 13.3655 3.00057 13.5327C3.00773 13.7 3.07935 13.8812 3.21542 14.0763L5.62182 17.4001C5.80086 17.644 6.00498 17.7642 6.23416 17.7607C6.46334 17.7573 6.66387 17.6371 6.83575 17.4001L9.24214 14.0658C9.37822 13.8707 9.44805 13.6913 9.45163 13.5275C9.4552 13.3638 9.39254 13.2314 9.26363 13.1303C9.13471 13.0293 8.94493 12.9788 8.69426 12.9788H3.76331Z" fill="black" fill-opacity="0.85"/>
</svg>
