<svg width="30" height="30" viewBox="0 0 30 30" fill="none" xmlns="http://www.w3.org/2000/svg">
<path fill-rule="evenodd" clip-rule="evenodd" d="M15 5C14.291 5 13.605 5.25108 13.0635 5.70872L6.06059 11.7102C5.72864 11.9915 5.46183 12.3416 5.27868 12.7363C5.09503 13.1321 4.99993 13.5634 5 13.9997V22.9995C5 23.7951 5.31607 24.5582 5.87868 25.1208C6.44129 25.6834 7.20435 25.9995 8 25.9995H22C22.7957 25.9995 23.5587 25.6834 24.1213 25.1208C24.6839 24.5582 25 23.7951 25 22.9995V13.9995C25.0001 13.5632 24.905 13.1321 24.7213 12.7363C24.5382 12.3416 24.2713 11.9914 23.9393 11.7101L23.9365 11.7077L16.9417 5.71315L16.9365 5.70872C16.395 5.25108 15.709 5 15 5ZM7.35452 13.2353L14.3567 7.23441C14.5368 7.08302 14.7646 7 15 7C15.2354 7 15.4632 7.08302 15.6433 7.2344L15.6455 7.23624L22.6403 13.2308L22.6455 13.2352C22.7566 13.3291 22.8459 13.4461 22.9071 13.5781C22.9683 13.7101 23 13.854 23 13.9995V22.9995C23 23.2647 22.8946 23.519 22.7071 23.7066C22.5196 23.8941 22.2652 23.9995 22 23.9995H19V16.9995C19 16.469 18.7893 15.9603 18.4142 15.5852C18.0391 15.2102 17.5304 14.9995 17 14.9995H13C12.4696 14.9995 11.9609 15.2102 11.5858 15.5852C11.2107 15.9603 11 16.469 11 16.9995V23.9995H8C7.73478 23.9995 7.48043 23.8941 7.29289 23.7066C7.10536 23.519 7 23.2647 7 22.9995V13.9992C6.99997 13.8538 7.03167 13.7101 7.09289 13.5781C7.15412 13.4461 7.24341 13.3292 7.35452 13.2353ZM13 23.9995H17V16.9995H13V23.9995Z" fill="#111111"/>
</svg>
