<svg width="35" height="29" viewBox="0 0 35 29" fill="none" xmlns="http://www.w3.org/2000/svg">
<path d="M24.0625 6.84297C23.8656 6.84297 23.6906 6.84297 23.4937 6.86441C22.822 4.97914 21.5683 3.34531 19.9064 2.18938C18.2445 1.03345 16.2568 0.412672 14.2188 0.413086C8.79375 0.413086 4.375 4.74254 4.375 10.0579C4.375 10.7438 4.4625 11.4296 4.6375 12.1583C1.79375 13.6372 0 16.4878 0 19.7027C0 24.4394 3.91562 28.2759 8.75 28.2759H17.5V17.3023L14.0875 20.6458C13.5625 21.1602 12.6875 21.1602 12.1625 20.6458C11.6375 20.1314 11.6375 19.2741 12.1625 18.7597L16.8438 14.1516C17.8062 13.2086 19.3594 13.2086 20.3219 14.1516L25.025 18.7597C25.55 19.2741 25.55 20.1314 25.025 20.6458C24.7625 20.903 24.4125 21.0316 24.0625 21.0316C23.7125 21.0316 23.3625 20.903 23.1 20.6458L19.6875 17.3023V28.2759H24.0625C30.1 28.2759 35 23.475 35 17.5595C35 11.644 30.1 6.84297 24.0625 6.84297Z" fill="#B7C8EE"/>
</svg>
