<svg width="30" height="30" viewBox="0 0 30 30" fill="none" xmlns="http://www.w3.org/2000/svg">
<path d="M6 20.2809C6 20.6334 6.12719 20.9153 6.38156 21.1267C6.63593 21.3381 6.98887 21.4439 7.44038 21.4439H11.4658C11.4913 22.0653 11.6582 22.6387 11.9666 23.1641C12.2751 23.6895 12.69 24.114 13.2115 24.4376C13.7329 24.7611 14.3275 24.9229 14.9952 24.9229C15.6693 24.9229 16.2671 24.7611 16.7886 24.4376C17.31 24.114 17.725 23.6895 18.0334 23.1641C18.3418 22.6387 18.5088 22.0653 18.5342 21.4439H22.5596C23.0112 21.4439 23.3641 21.3381 23.6185 21.1267C23.8728 20.9153 24 20.6334 24 20.2809C24 19.9606 23.9078 19.6499 23.7234 19.3487C23.539 19.0476 23.3084 18.7528 23.0318 18.4645C22.7552 18.1762 22.4801 17.8879 22.2067 17.5995C21.9968 17.3817 21.8331 17.0966 21.7155 16.7442C21.5978 16.3918 21.5104 16.017 21.4531 15.6197C21.3959 15.2225 21.3546 14.838 21.3292 14.4664C21.3228 14.1525 21.31 13.8466 21.291 13.5486C21.2719 13.2507 21.2465 12.9608 21.2147 12.6788C20.9921 12.7493 20.7425 12.8054 20.4659 12.847C20.1892 12.8887 19.9365 12.9031 19.7075 12.8903C19.733 13.1402 19.7552 13.4061 19.7743 13.688C19.7934 13.9699 19.8061 14.271 19.8124 14.5914C19.8315 15.0591 19.868 15.4884 19.9221 15.8792C19.9761 16.2701 20.0461 16.6257 20.132 16.946C20.2178 17.2664 20.3243 17.5531 20.4515 17.8062C20.5787 18.0592 20.7281 18.2819 20.8999 18.4741C21.0716 18.6599 21.2417 18.8425 21.4102 19.0219C21.5788 19.2013 21.7282 19.3663 21.8586 19.5169C21.9889 19.6675 22.0827 19.7876 22.1399 19.8773V19.9927H7.85056V19.8773C7.90779 19.7876 8.00318 19.6675 8.13673 19.5169C8.27028 19.3663 8.42131 19.2013 8.58983 19.0219C8.75836 18.8425 8.92529 18.6599 9.09062 18.4741C9.26232 18.2819 9.41177 18.0592 9.53896 17.8062C9.66614 17.5531 9.77425 17.2664 9.86328 16.946C9.95232 16.6257 10.0223 16.2701 10.0731 15.8792C10.124 15.4884 10.1622 15.0591 10.1876 14.5914C10.213 13.1946 10.3561 12.0862 10.6169 11.2661C10.8776 10.446 11.2258 9.83567 11.6614 9.43523C12.097 9.03477 12.5882 8.75766 13.1352 8.60389C13.256 8.57827 13.3482 8.53182 13.4118 8.46454C13.4754 8.39726 13.5103 8.30276 13.5167 8.18102C13.5358 7.68126 13.6773 7.2728 13.9412 6.95565C14.2051 6.6385 14.5565 6.47992 14.9952 6.47992C15.1797 6.47992 15.3355 6.50555 15.4627 6.5568C15.5517 6.33255 15.6566 6.11791 15.7775 5.91288C15.8983 5.70785 16.035 5.51564 16.1876 5.33624C15.8188 5.15684 15.4213 5.06714 14.9952 5.06714C14.2957 5.06714 13.7027 5.28498 13.2162 5.72067C12.7297 6.15635 12.407 6.68815 12.248 7.31606C11.4022 7.6236 10.7202 8.09773 10.2019 8.73845C9.68363 9.37916 9.30366 10.1785 9.06201 11.1363C8.82036 12.0942 8.68999 13.2042 8.67092 14.4664C8.64547 14.838 8.60414 15.2225 8.5469 15.6197C8.48967 16.017 8.40223 16.3918 8.28459 16.7442C8.16693 17.0966 8.00318 17.3817 7.79333 17.5995C7.51988 17.8879 7.24484 18.1762 6.96821 18.4645C6.69158 18.7528 6.46105 19.0476 6.27663 19.3487C6.09221 19.6499 6 19.9606 6 20.2809ZM12.9539 21.4439H17.0461C17.008 22.0974 16.8013 22.6148 16.4261 22.996C16.0509 23.3772 15.574 23.5678 14.9952 23.5678C14.4229 23.5678 13.9476 23.3772 13.5692 22.996C13.1908 22.6148 12.9857 22.0974 12.9539 21.4439Z" fill="#111111"/>
<path d="M19.6979 11.6697C20.2957 11.6697 20.8458 11.5191 21.3482 11.218C21.8506 10.9168 22.2512 10.5132 22.5501 10.007C22.849 9.50085 22.9984 8.94343 22.9984 8.33474C22.9984 7.72607 22.849 7.16864 22.5501 6.66247C22.2512 6.15631 21.8506 5.75266 21.3482 5.45152C20.8458 5.15039 20.2957 4.99982 19.6979 4.99982C19.0874 4.99982 18.5325 5.15039 18.0333 5.45152C17.5341 5.75266 17.1351 6.15631 16.8363 6.66247C16.5374 7.16864 16.3879 7.72607 16.3879 8.33474C16.3879 8.94343 16.5374 9.50085 16.8363 10.007C17.1351 10.5132 17.5341 10.9168 18.0333 11.218C18.5325 11.5191 19.0874 11.6697 19.6979 11.6697Z" fill="#FF3B30"/>
</svg>
