<svg width="30" height="30" viewBox="0 0 30 30" fill="none" xmlns="http://www.w3.org/2000/svg">
<path d="M14.8243 26.191C15.0317 26.3542 15.2602 26.442 15.5097 26.4545C15.7593 26.4671 15.9813 26.3824 16.1758 26.2005L19.1803 23.2922C19.3683 23.1039 19.4606 22.8843 19.4574 22.6333C19.4541 22.3823 19.3585 22.1659 19.1705 21.9839L17.6635 20.5345L19.8609 18.4168C20.0489 18.2348 20.1413 18.0183 20.138 17.7674C20.1348 17.5163 20.0391 17.2967 19.8512 17.1085L17.819 15.132C19.1543 14.5108 20.185 13.692 20.911 12.6755C21.637 11.659 22 10.5264 22 9.27776C22 8.41187 21.8315 7.59931 21.4944 6.84008C21.1573 6.08084 20.6923 5.41259 20.0992 4.83533C19.506 4.25806 18.8157 3.80786 18.0281 3.48472C17.2405 3.16157 16.3994 3 15.5049 3C14.5974 3 13.7515 3.16157 12.9671 3.48472C12.1828 3.80786 11.4924 4.25649 10.896 4.83062C10.2997 5.40475 9.83458 6.07143 9.50075 6.83066C9.16692 7.58989 9 8.40559 9 9.27776C9 10.1186 9.15719 10.9139 9.47158 11.6637C9.78597 12.4135 10.2316 13.0802 10.8085 13.6638C11.3855 14.2473 12.0693 14.7085 12.8601 15.0473V23.9322C12.8601 24.089 12.8877 24.2506 12.9428 24.4169C12.9979 24.5832 13.0967 24.7259 13.2394 24.8451L14.8243 26.191ZM15.5049 24.7039L14.4256 23.6686V13.9555C13.6672 13.7924 12.9963 13.4849 12.4129 13.0332C11.8295 12.5814 11.3741 12.0323 11.0467 11.386C10.7194 10.7398 10.5557 10.037 10.5557 9.27776C10.5557 8.61893 10.6837 8.00245 10.9398 7.42832C11.1958 6.85419 11.5491 6.34908 11.9996 5.91299C12.4502 5.47691 12.9752 5.13494 13.5748 4.8871C14.1744 4.63925 14.8178 4.51533 15.5049 4.51533C16.4124 4.51533 17.2405 4.72866 17.9892 5.15534C18.7378 5.58201 19.3326 6.15614 19.7734 6.87772C20.2142 7.5993 20.4346 8.39931 20.4346 9.27776C20.4346 10.0244 20.2677 10.7225 19.9338 11.3719C19.6 12.0213 19.13 12.5782 18.524 13.0425C17.9179 13.5069 17.2097 13.8331 16.3994 14.0213V15.9226L18.3052 17.7767L16.2439 19.7438V21.3062L17.6246 22.6239L15.5049 24.7039ZM15.5049 9.36247C15.991 9.36247 16.4059 9.19619 16.7495 8.86364C17.093 8.53109 17.2648 8.12637 17.2648 7.6495C17.2648 7.1789 17.093 6.77733 16.7495 6.44477C16.4059 6.11222 15.991 5.94594 15.5049 5.94594C15.0122 5.94594 14.5941 6.11065 14.2506 6.44007C13.907 6.76948 13.7352 7.17263 13.7352 7.6495C13.7352 8.12637 13.907 8.53109 14.2506 8.86364C14.5941 9.19619 15.0122 9.36247 15.5049 9.36247Z" fill="#111111"/>
</svg>
