<svg width="30" height="30" viewBox="0 0 30 30" fill="none" xmlns="http://www.w3.org/2000/svg">
<path fill-rule="evenodd" clip-rule="evenodd" d="M20.0529 25.9676H9.9471C9.34983 25.9676 8.876 25.8004 8.5256 25.4659C8.1752 25.1314 8 24.6457 8 24.0085V23.7696C8 23.0529 8.16325 22.3322 8.48976 21.6075C8.81627 20.8829 9.23038 20.1841 9.73209 19.5112C10.2338 18.8382 10.7534 18.217 11.291 17.6476C11.8285 17.0782 12.3043 16.5865 12.7184 16.1724C13.1325 15.7662 13.3316 15.3581 13.3157 14.948C13.2998 14.5378 13.1007 14.1456 12.7184 13.7713C12.3043 13.3572 11.8285 12.8655 11.291 12.2961C10.7534 11.7267 10.2338 11.1075 9.73209 10.4386C9.23038 9.76963 8.81627 9.07282 8.48976 8.34813C8.16325 7.62344 8 6.89875 8 6.17406V5.97099C8 5.32594 8.1752 4.83618 8.5256 4.50171C8.876 4.16724 9.34983 4 9.9471 4H20.0529C20.6581 4 21.134 4.16724 21.4804 4.50171C21.8268 4.83618 22 5.32594 22 5.97099V6.17406C22 6.89875 21.8367 7.62344 21.5102 8.34813C21.1837 9.07282 20.7696 9.76963 20.2679 10.4386C19.7662 11.1075 19.2466 11.7267 18.7091 12.2961C18.1715 12.8655 17.6957 13.3572 17.2816 13.7713C16.9073 14.1456 16.7122 14.5378 16.6963 14.948C16.6803 15.3581 16.8754 15.7662 17.2816 16.1724C17.6957 16.5865 18.1715 17.0782 18.7091 17.6476C19.2466 18.217 19.7662 18.8382 20.2679 19.5112C20.7696 20.1841 21.1837 20.8829 21.5102 21.6075C21.8367 22.3322 22 23.0529 22 23.7696V24.0085C22 24.6457 21.8268 25.1314 21.4804 25.4659C21.134 25.8004 20.6581 25.9676 20.0529 25.9676ZM10.4011 24.0025C10.4569 24.2295 10.6122 24.343 10.867 24.343H19.1332C19.396 24.343 19.5533 24.2295 19.6051 24.0025C19.6568 23.7755 19.5951 23.5824 19.4199 23.4232L15.6093 19.7918C15.5376 19.7281 15.4879 19.6723 15.46 19.6245C15.4321 19.5767 15.4182 19.5051 15.4182 19.4096V14.1177C15.4182 13.8469 15.452 13.6279 15.5197 13.4607C15.5874 13.2935 15.7208 13.1223 15.9199 12.9471C16.3261 12.6046 16.78 12.2104 17.2817 11.7645C17.7834 11.3185 18.2174 10.9004 18.5837 10.5102C18.743 10.3509 18.7928 10.1956 18.733 10.0443C18.6733 9.89301 18.5479 9.81736 18.3568 9.81736H11.6435C11.4603 9.81736 11.3388 9.89301 11.2791 10.0443C11.2194 10.1956 11.2652 10.3509 11.4165 10.5102C11.7828 10.9004 12.2188 11.3185 12.7245 11.7645C13.2302 12.2104 13.6821 12.6046 14.0803 12.9471C14.2874 13.1223 14.4247 13.2935 14.4924 13.4607C14.5601 13.6279 14.594 13.8469 14.594 14.1177V19.4096C14.594 19.5051 14.578 19.5767 14.5462 19.6245C14.5143 19.6723 14.4626 19.7281 14.3909 19.7918L10.5803 23.4232C10.4051 23.5824 10.3454 23.7755 10.4011 24.0025Z" fill="#111111"/>
</svg>
