<svg width="30" height="30" viewBox="0 0 30 30" fill="none" xmlns="http://www.w3.org/2000/svg">
<path d="M22.3537 26C23.336 26 24.1721 25.8598 24.862 25.5793C25.5518 25.2988 26.1816 24.837 26.7515 24.1937C26.7965 24.1489 26.8396 24.1021 26.8809 24.0536C26.9221 24.005 26.9652 23.9582 27.0102 23.9133C27.3476 23.5393 27.5969 23.1672 27.7581 22.797C27.9194 22.4268 28 22.0659 28 21.7144C28 21.3106 27.88 20.9198 27.6401 20.542C27.4001 20.1643 27.029 19.8034 26.5266 19.4594L23.2536 17.1933C22.7512 16.8493 22.2207 16.6735 21.662 16.666C21.1034 16.6585 20.5879 16.8866 20.1156 17.3503L19.2495 18.2141C19.122 18.3413 19.0001 18.4124 18.8839 18.4273C18.7677 18.4423 18.6459 18.4086 18.5183 18.3263C18.3159 18.1992 18.0591 18.0085 17.7479 17.7542C17.4368 17.4999 17.1125 17.2213 16.775 16.9184C16.4376 16.6155 16.1302 16.3257 15.8527 16.049C15.5603 15.7572 15.2772 15.4618 15.0036 15.1627C14.7299 14.8635 14.4787 14.5737 14.25 14.2932C14.0213 14.0127 13.8319 13.7528 13.682 13.5135C13.607 13.3864 13.577 13.2648 13.592 13.1489C13.607 13.033 13.6782 12.9114 13.8057 12.7843L14.6605 11.9204C15.1329 11.4493 15.3654 10.9351 15.3579 10.3779C15.3504 9.82067 15.1741 9.29151 14.8292 8.7904L12.5572 5.52574C12.2048 5.02464 11.8412 4.65629 11.4662 4.4207C11.0913 4.18511 10.7014 4.06357 10.2965 4.05609C9.58418 4.04113 8.84934 4.37022 8.09202 5.04334C8.04703 5.08822 8.00017 5.13122 7.95143 5.17236C7.90269 5.21349 7.85583 5.25276 7.81084 5.29016C7.17348 5.85857 6.71234 6.48682 6.4274 7.1749C6.14247 7.86299 6 8.69318 6 9.66547C6 10.735 6.21558 11.8681 6.64673 13.0647C7.07788 14.2614 7.71148 15.4824 8.54754 16.7277C9.3836 17.973 10.4052 19.1977 11.6125 20.4018C12.8197 21.5984 14.0457 22.6138 15.2904 23.4477C16.5351 24.2817 17.7554 24.9155 18.9514 25.3493C20.1473 25.7831 21.2815 26 22.3537 26ZM22.365 24.2723C21.4128 24.2948 20.3893 24.0853 19.2945 23.644C18.1997 23.2027 17.105 22.5988 16.0102 21.8323C14.9155 21.0656 13.8807 20.1999 12.9059 19.2351C11.9311 18.2628 11.0482 17.2176 10.2571 16.0994C9.46608 14.9813 8.84185 13.8669 8.38445 12.7562C7.92706 11.6456 7.70586 10.6153 7.72085 9.66547C7.73585 9.0447 7.85208 8.47441 8.06953 7.95461C8.28698 7.4348 8.6169 6.98418 9.0593 6.60274C9.09679 6.56535 9.13241 6.53357 9.16615 6.50739C9.19989 6.48122 9.23551 6.45317 9.273 6.42325C9.43796 6.28115 9.60855 6.17083 9.78475 6.0923C9.96096 6.01376 10.1315 5.9745 10.2965 5.9745C10.6564 5.9745 10.9339 6.12782 11.1288 6.43447L13.3108 9.69913C13.4308 9.87863 13.4889 10.0619 13.4852 10.2488C13.4814 10.4358 13.3933 10.6153 13.2208 10.7873L12.2311 11.7746C11.8412 12.156 11.6462 12.5693 11.6462 13.0143C11.6462 13.4593 11.7887 13.8688 12.0736 14.2427C12.396 14.6765 12.8047 15.1739 13.2996 15.7348C13.7945 16.2958 14.2594 16.7894 14.6943 17.2157C14.9792 17.4999 15.3072 17.8121 15.6784 18.1524C16.0496 18.4928 16.4207 18.8219 16.7919 19.1397C17.1631 19.4576 17.4949 19.725 17.7873 19.9419C18.1623 20.2186 18.5709 20.3588 19.0132 20.3626C19.4557 20.3663 19.8718 20.1737 20.2617 19.7848L21.2515 18.7976C21.424 18.6181 21.6039 18.5283 21.7913 18.5283C21.9788 18.5283 22.1626 18.5844 22.3426 18.6966L25.6154 20.873C25.7805 20.9852 25.8986 21.1123 25.9698 21.2544C26.041 21.3966 26.0766 21.5499 26.0766 21.7144C26.0766 22.051 25.9266 22.3913 25.6267 22.7353C25.5968 22.7727 25.5687 22.8082 25.5424 22.8419C25.5162 22.8756 25.4843 22.9111 25.4468 22.9484C25.0644 23.3897 24.6107 23.7188 24.0858 23.9357C23.5609 24.1526 22.9873 24.2648 22.365 24.2723Z" fill="#111111"/>
</svg>
