<svg width="30" height="30" viewBox="0 0 30 30" fill="none" xmlns="http://www.w3.org/2000/svg">
<path d="M9.74328 8.50478H11.3178V6.14984C11.3178 5.65302 11.4466 5.27047 11.7042 5.00218C11.9617 4.73391 12.3447 4.59977 12.8533 4.59977H17.176V9.69714C17.176 10.2735 17.3146 10.7007 17.5916 10.9789C17.8688 11.2572 18.2877 11.3963 18.8484 11.3963H23.4254V19.8919C23.4254 20.3887 23.295 20.7713 23.0342 21.0396C22.7734 21.3078 22.3888 21.442 21.8802 21.442H19.9535V23.0418H21.9683C22.9788 23.0418 23.7368 22.7801 24.2421 22.2568C24.7474 21.7335 25 20.9551 25 19.9218V11.8533C25 11.2439 24.9283 10.7272 24.7849 10.3033C24.6414 9.8793 24.3871 9.47523 24.022 9.09102L19.0831 3.99364C18.7376 3.62931 18.3561 3.37262 17.9389 3.22357C17.5216 3.07452 17.0489 3 16.5208 3H12.7751C11.7645 3 11.0065 3.26166 10.5012 3.78498C9.99593 4.3083 9.74328 5.08665 9.74328 6.12004V8.50478ZM18.5941 9.45867V5.38474L23.0147 9.95549H19.0733C18.9038 9.95549 18.7816 9.9174 18.7066 9.84122C18.6316 9.76504 18.5941 9.63753 18.5941 9.45867ZM5 24.88C5 25.92 5.25265 26.7 5.75795 27.22C6.26324 27.74 7.02119 28 8.03178 28H17.2249C18.2355 28 18.9935 27.7383 19.4987 27.215C20.0041 26.6917 20.2568 25.9133 20.2568 24.88V17.1197C20.2568 16.6957 20.2339 16.338 20.1883 16.0465C20.1427 15.7551 20.053 15.4884 19.9194 15.2466C19.7857 15.0048 19.5884 14.7482 19.3276 14.4766L13.9389 8.90223C13.5672 8.5114 13.2021 8.25636 12.8435 8.13713C12.4849 8.01789 12.0318 7.95827 11.4841 7.95827H8.03178C7.02119 7.95827 6.26324 8.21993 5.75795 8.74324C5.25265 9.26657 5 10.0449 5 11.0783V24.88ZM6.57458 24.8502V11.0982C6.57458 10.608 6.70335 10.2287 6.96088 9.96046C7.21842 9.69217 7.60147 9.55803 8.11003 9.55803H11.3178V15.3212C11.3178 15.9505 11.4727 16.4208 11.7824 16.7321C12.0921 17.0435 12.5501 17.1992 13.1565 17.1992H18.6821V24.8502C18.6821 25.347 18.5518 25.7295 18.291 25.9978C18.0302 26.2661 17.6488 26.4002 17.1467 26.4002H8.10024C7.59821 26.4002 7.21842 26.2661 6.96088 25.9978C6.70335 25.7295 6.57458 25.347 6.57458 24.8502ZM13.3423 15.6988C13.1467 15.6988 13.0065 15.6557 12.9218 15.5695C12.837 15.4835 12.7946 15.3411 12.7946 15.1423V9.92568L18.379 15.6988H13.3423Z" fill="#111111"/>
</svg>
