<svg width="30" height="30" viewBox="0 0 30 30" fill="none" xmlns="http://www.w3.org/2000/svg">
<path d="M5 18.9023C5 19.7226 5.12207 20.4958 5.36621 21.2217C5.61035 21.9476 5.95052 22.5888 6.38672 23.1455C6.82292 23.7022 7.32585 24.1384 7.89551 24.4541C8.46517 24.7698 9.07227 24.9277 9.7168 24.9277H12.9492C13.5872 25.2662 14.2936 25.5315 15.0684 25.7236C15.8431 25.9157 16.6667 26.0117 17.5391 26.0117H18.8867C19.4987 26.0117 20.0602 25.9922 20.5713 25.9531C21.0824 25.914 21.5104 25.8522 21.8555 25.7676C22.5326 25.5983 23.068 25.294 23.4619 24.8545C23.8558 24.415 24.0527 23.8958 24.0527 23.2969C24.0527 23.0625 24.0136 22.8281 23.9355 22.5938C24.2741 22.3464 24.5345 22.0453 24.7168 21.6904C24.8991 21.3356 24.9902 20.9531 24.9902 20.543C24.9902 20.1263 24.9153 19.7552 24.7656 19.4297C24.9935 19.2018 25.1709 18.9268 25.2979 18.6045C25.4248 18.2822 25.4883 17.9421 25.4883 17.584C25.4883 17.3561 25.4606 17.1266 25.4053 16.8955C25.35 16.6644 25.2702 16.4609 25.166 16.2852C25.4655 15.8685 25.6152 15.3575 25.6152 14.752C25.6152 14.2702 25.4997 13.8307 25.2686 13.4336C25.0375 13.0365 24.7266 12.7223 24.3359 12.4912C23.9453 12.2601 23.5091 12.1445 23.0273 12.1445H19.3262C19.209 12.1445 19.1146 12.1185 19.043 12.0664C18.9713 12.0143 18.9355 11.9395 18.9355 11.8418C18.9355 11.5749 19.0202 11.2314 19.1895 10.8115C19.3588 10.3916 19.5524 9.92936 19.7705 9.4248C19.9886 8.92025 20.1823 8.40104 20.3516 7.86719C20.5209 7.33334 20.6055 6.81901 20.6055 6.32422C20.6055 5.875 20.5078 5.47461 20.3125 5.12305C20.1172 4.77149 19.8519 4.49642 19.5166 4.29785C19.1813 4.09928 18.7956 4 18.3594 4C17.8776 4 17.4642 4.13346 17.1191 4.40039C16.7741 4.66732 16.4453 5.10351 16.1328 5.70898C15.8333 6.27539 15.516 6.83528 15.1807 7.38867C14.8454 7.94206 14.4824 8.50195 14.0918 9.06836C13.7012 9.63477 13.2682 10.2288 12.793 10.8506C12.3177 11.4723 11.7904 12.138 11.2109 12.8477H9.3457C8.74675 12.8477 8.1836 13.0039 7.65625 13.3164C7.1289 13.6289 6.66666 14.0635 6.26953 14.6201C5.8724 15.1768 5.56152 15.8213 5.33691 16.5537C5.1123 17.2861 5 18.069 5 18.9023ZM10.6738 18.8535C10.6738 18.1504 10.7324 17.5156 10.8496 16.9492C10.9668 16.3828 11.1572 15.8343 11.4209 15.3037C11.6846 14.7731 12.0378 14.2116 12.4805 13.6191C12.9688 12.9681 13.5042 12.2682 14.0869 11.5195C14.6696 10.7708 15.2539 9.97005 15.8398 9.11719C16.4258 8.26432 16.9629 7.35286 17.4512 6.38281C17.6335 6.01172 17.7962 5.76758 17.9395 5.65039C18.0827 5.5332 18.2422 5.47461 18.418 5.47461C18.6328 5.47461 18.8053 5.54785 18.9355 5.69434C19.0658 5.84082 19.1309 6.05078 19.1309 6.32422C19.1309 6.72135 19.0463 7.15755 18.877 7.63281C18.7077 8.10807 18.514 8.59635 18.2959 9.09766C18.0778 9.59896 17.8841 10.0856 17.7148 10.5576C17.5455 11.0296 17.4609 11.4577 17.4609 11.8418C17.4609 12.3952 17.6627 12.8298 18.0664 13.1455C18.4701 13.4613 18.9616 13.6191 19.541 13.6191H23.0273C23.3464 13.6191 23.6117 13.7282 23.8232 13.9463C24.0348 14.1644 24.1406 14.4329 24.1406 14.752C24.1406 15.1687 23.9616 15.5495 23.6035 15.8945C23.5189 15.9792 23.4717 16.0687 23.4619 16.1631C23.4522 16.2575 23.4831 16.3503 23.5547 16.4414C23.7174 16.6758 23.8346 16.8776 23.9062 17.0469C23.9779 17.2162 24.0137 17.3952 24.0137 17.584C24.0137 17.8183 23.9584 18.0348 23.8477 18.2334C23.737 18.4319 23.5709 18.6159 23.3496 18.7852C23.2259 18.8763 23.1446 18.9837 23.1055 19.1074C23.0664 19.2311 23.0827 19.3679 23.1543 19.5176C23.278 19.7455 23.3691 19.9294 23.4277 20.0693C23.4863 20.2093 23.5156 20.3672 23.5156 20.543C23.5156 21.0443 23.1706 21.4739 22.4805 21.832C22.3698 21.8906 22.2998 21.9655 22.2705 22.0566C22.2412 22.1478 22.2494 22.2487 22.2949 22.3594C22.4186 22.6523 22.4968 22.8509 22.5293 22.9551C22.5618 23.0592 22.5781 23.1732 22.5781 23.2969C22.5781 23.5378 22.4886 23.7477 22.3096 23.9268C22.1305 24.1058 21.862 24.2409 21.5039 24.332C21.2174 24.4037 20.8512 24.4574 20.4053 24.4932C19.9593 24.529 19.4564 24.5436 18.8965 24.5371L17.5488 24.5176C16.1816 24.5045 14.9821 24.2571 13.9502 23.7754C12.9183 23.2936 12.1143 22.6295 11.5381 21.7832C10.9619 20.9369 10.6738 19.9603 10.6738 18.8535ZM6.47461 18.9023C6.47461 18.0625 6.6097 17.2959 6.87988 16.6025C7.15007 15.9092 7.50326 15.3558 7.93945 14.9424C8.37565 14.529 8.8444 14.3223 9.3457 14.3223C9.49544 14.3223 9.64518 14.3223 9.79492 14.3223C9.94466 14.3223 10.0977 14.3223 10.2539 14.3223C9.88282 15.0059 9.61426 15.7139 9.44824 16.4463C9.28223 17.1787 9.19922 17.9713 9.19922 18.8242C9.19922 19.7422 9.35872 20.5918 9.67773 21.373C9.99674 22.1543 10.4525 22.8476 11.0449 23.4531C10.8236 23.4531 10.6022 23.4531 10.3809 23.4531C10.1595 23.4531 9.93815 23.4531 9.7168 23.4531C9.14388 23.4531 8.61002 23.2448 8.11523 22.8281C7.62044 22.4114 7.22331 21.8597 6.92383 21.1729C6.62435 20.486 6.47461 19.7292 6.47461 18.9023Z" fill="#111111"/>
</svg>
