<svg width="30" height="30" viewBox="0 0 30 30" fill="none" xmlns="http://www.w3.org/2000/svg">
<path d="M15.9551 22.4023V18.8574L15.8965 17.2656L16.7266 18.125L17.6055 19.0234C17.6771 19.0951 17.7585 19.1504 17.8496 19.1895C17.9407 19.2285 18.0351 19.248 18.1328 19.248C18.3281 19.248 18.4909 19.1845 18.6211 19.0576C18.7513 18.9307 18.8164 18.7695 18.8164 18.5742C18.8164 18.4635 18.7952 18.3659 18.7529 18.2812C18.7106 18.1966 18.6504 18.1185 18.5723 18.0469L15.7598 15.459C15.6556 15.3613 15.5628 15.2946 15.4815 15.2588C15.4001 15.223 15.3105 15.2051 15.2129 15.2051C15.1152 15.2051 15.0257 15.223 14.9443 15.2588C14.863 15.2946 14.7702 15.3613 14.666 15.459L11.8535 18.0469C11.7754 18.1185 11.7152 18.1966 11.6729 18.2812C11.6305 18.3659 11.6094 18.4635 11.6094 18.5742C11.6094 18.7695 11.6745 18.9307 11.8047 19.0576C11.9349 19.1845 12.0977 19.248 12.293 19.248C12.3841 19.248 12.4769 19.2285 12.5713 19.1895C12.6657 19.1504 12.7487 19.0951 12.8203 19.0234L13.6992 18.125L14.5293 17.2656L14.4707 18.8574V22.4023C14.4707 22.5976 14.5439 22.7669 14.6904 22.9102C14.8369 23.0534 15.0111 23.125 15.2129 23.125C15.4147 23.125 15.5889 23.0534 15.7353 22.9102C15.8818 22.7669 15.9551 22.5976 15.9551 22.4023ZM10.0273 25.9375H20.3984C21.4075 25.9375 22.1644 25.682 22.6689 25.1709C23.1735 24.6598 23.4258 23.8965 23.4258 22.8809V14.0137C23.4258 13.5905 23.403 13.2357 23.3574 12.9492C23.3119 12.6628 23.2224 12.4007 23.0889 12.1631C22.9554 11.9255 22.7585 11.6732 22.498 11.4062L17.1172 5.92773C16.8698 5.67383 16.6289 5.48014 16.3945 5.34668C16.1602 5.21322 15.9046 5.12207 15.6279 5.07324C15.3512 5.02441 15.0306 5 14.666 5H10.0273C9.01823 5 8.26139 5.25716 7.75684 5.77148C7.25228 6.28581 7 7.05078 7 8.06641V22.8809C7 23.903 7.25228 24.668 7.75684 25.1758C8.26139 25.6836 9.01823 25.9375 10.0273 25.9375ZM10.0957 24.3652C9.5944 24.3652 9.21517 24.235 8.95801 23.9746C8.70085 23.7142 8.57227 23.3399 8.57227 22.8516V8.0957C8.57227 7.61393 8.70085 7.23959 8.95801 6.97266C9.21517 6.70573 9.59766 6.57227 10.1055 6.57227H14.4512V12.2461C14.4512 12.8581 14.6042 13.3171 14.9102 13.623C15.2161 13.929 15.6751 14.082 16.2871 14.082H21.8535V22.8516C21.8535 23.3399 21.7249 23.7142 21.4678 23.9746C21.2106 24.235 20.8281 24.3652 20.3203 24.3652H10.0957ZM16.4629 12.6074C16.2676 12.6074 16.1292 12.5651 16.0478 12.4805C15.9665 12.3958 15.9258 12.2559 15.9258 12.0606V6.875L21.5508 12.6074H16.4629Z" fill="#111111"/>
</svg>
