<svg width="15" height="16" viewBox="0 0 15 16" fill="none" xmlns="http://www.w3.org/2000/svg">
<path d="M3.92775 15.8896H10.99C11.5394 15.8896 11.9861 15.7434 12.3301 15.4508C12.6741 15.1583 12.8589 14.7652 12.8846 14.2715L13.4159 4.30209H14.3401C14.4993 4.30209 14.6341 4.25066 14.7445 4.14781C14.8548 4.04497 14.91 3.92269 14.91 3.78099C14.91 3.63929 14.8535 3.51816 14.7406 3.4176C14.6277 3.31703 14.4942 3.26675 14.3401 3.26675H0.57761C0.423581 3.26675 0.288805 3.31817 0.173283 3.42102C0.0577611 3.52387 0 3.64386 0 3.78099C0 3.92269 0.0577611 4.04497 0.173283 4.14781C0.288805 4.25066 0.423581 4.30209 0.57761 4.30209H1.50179L2.03318 14.2784C2.05886 14.772 2.24241 15.164 2.58384 15.4543C2.92527 15.7445 3.37324 15.8896 3.92775 15.8896ZM4.03557 14.8543C3.8148 14.8543 3.62996 14.788 3.48106 14.6555C3.33217 14.5229 3.25259 14.3561 3.24232 14.1549L2.70321 4.30209H12.1761L11.6677 14.1549C11.6575 14.3606 11.5779 14.5286 11.429 14.6589C11.2801 14.7892 11.0927 14.8543 10.8668 14.8543H4.03557ZM5.17539 13.6818C5.31915 13.6818 5.43467 13.6441 5.52195 13.5687C5.60923 13.4933 5.65288 13.3961 5.65288 13.2773L5.41413 5.9408C5.41413 5.82196 5.3692 5.72597 5.27936 5.65283C5.18951 5.57969 5.07527 5.54313 4.93664 5.54313C4.79288 5.54313 4.67607 5.58084 4.58622 5.65626C4.49637 5.73168 4.45401 5.82881 4.45915 5.94766L4.6902 13.2773C4.69533 13.4007 4.74154 13.499 4.82882 13.5722C4.9161 13.6453 5.03162 13.6818 5.17539 13.6818ZM7.45502 13.6818C7.60391 13.6818 7.72457 13.6441 7.81699 13.5687C7.90941 13.4933 7.95562 13.3961 7.95562 13.2773V5.94766C7.95562 5.82881 7.90941 5.73168 7.81699 5.65626C7.72457 5.58084 7.60391 5.54313 7.45502 5.54313C7.31126 5.54313 7.19317 5.58084 7.10075 5.65626C7.00833 5.73168 6.96212 5.82881 6.96212 5.94766V13.2773C6.96212 13.3961 7.00833 13.4933 7.10075 13.5687C7.19317 13.6441 7.31126 13.6818 7.45502 13.6818ZM9.74234 13.6818C9.88098 13.6818 9.99394 13.6453 10.0812 13.5722C10.1685 13.499 10.2147 13.4007 10.2199 13.2773L10.4509 5.94766C10.456 5.82881 10.4149 5.73168 10.3277 5.65626C10.2404 5.58084 10.1223 5.54313 9.97341 5.54313C9.83477 5.54313 9.72181 5.57969 9.63454 5.65283C9.54726 5.72597 9.50105 5.82424 9.4959 5.94766L9.26483 13.2773C9.25973 13.3961 9.30081 13.4933 9.38809 13.5687C9.47536 13.6441 9.59345 13.6818 9.74234 13.6818ZM4.07408 3.75356H5.29861V2.28626C5.29861 2.09428 5.3692 1.93886 5.5104 1.82001C5.65159 1.70117 5.83771 1.64175 6.06875 1.64175H8.82587C9.05694 1.64175 9.24306 1.70117 9.38423 1.82001C9.52544 1.93886 9.59605 2.09428 9.59605 2.28626V3.75356H10.8206V2.21769C10.8206 1.72402 10.6498 1.33434 10.3084 1.04865C9.967 0.762962 9.50105 0.620117 8.91057 0.620117H5.98404C5.39359 0.620117 4.92765 0.762962 4.58622 1.04865C4.24479 1.33434 4.07408 1.72402 4.07408 2.21769V3.75356Z" fill="#FF5555"/>
</svg>
