<svg width="30" height="30" viewBox="0 0 30 30" fill="none" xmlns="http://www.w3.org/2000/svg">
<path d="M7.09652 25.9999H22.9836C25.0479 25.9999 26.08 25.3492 26.08 24.0477C26.08 23.2505 25.8272 22.4005 25.3217 21.4976C24.8162 20.5946 24.0853 19.7426 23.1289 18.9413C22.1726 18.1401 21.014 17.4873 19.6532 16.983C18.2924 16.4786 16.7568 16.2264 15.0464 16.2264C13.3275 16.2264 11.7876 16.4786 10.4269 16.983C9.06607 17.4873 7.90751 18.1401 6.95117 18.9413C5.99483 19.7426 5.26389 20.5946 4.75833 21.4976C4.25278 22.4005 4 23.2505 4 24.0477C4 25.3492 5.03217 25.9999 7.09652 25.9999ZM6.50249 24.1575C6.33397 24.1575 6.2139 24.1331 6.14228 24.0843C6.07067 24.0355 6.03486 23.946 6.03486 23.8159C6.03486 23.3197 6.23076 22.7442 6.62256 22.0893C7.01437 21.4345 7.59365 20.8021 8.3604 20.192C9.12716 19.5819 10.0709 19.0755 11.1915 18.6728C12.3121 18.2702 13.5971 18.0688 15.0464 18.0688C16.4956 18.0688 17.7784 18.2702 18.8949 18.6728C20.0113 19.0755 20.9529 19.5819 21.7197 20.192C22.4864 20.8021 23.0657 21.4345 23.4575 22.0893C23.8493 22.7442 24.0452 23.3197 24.0452 23.8159C24.0452 23.946 24.0094 24.0355 23.9378 24.0843C23.8662 24.1331 23.7503 24.1575 23.5902 24.1575H6.50249ZM15.0464 14.7135C16.049 14.7135 16.9632 14.4532 17.789 13.9326C18.6147 13.412 19.274 12.7185 19.7669 11.8522C20.2599 10.9859 20.5063 10.0281 20.5063 8.97872C20.5063 7.93752 20.262 6.99596 19.7733 6.15404C19.2846 5.31213 18.6274 4.64308 17.8017 4.14689C16.9759 3.65069 16.0575 3.40259 15.0464 3.40259C14.0437 3.40259 13.1295 3.65475 12.3037 4.15909C11.478 4.66342 10.8187 5.33857 10.3257 6.18455C9.83283 7.03053 9.58637 7.97005 9.58637 9.00312C9.58637 10.0443 9.83283 10.9981 10.3257 11.8644C10.8187 12.7307 11.478 13.4221 12.3037 13.9387C13.1295 14.4552 14.0437 14.7135 15.0464 14.7135ZM15.0464 12.871C14.4313 12.871 13.8646 12.6982 13.3464 12.3525C12.8282 12.0067 12.4111 11.5411 12.0952 10.9554C11.7792 10.3697 11.6212 9.71895 11.6212 9.00312C11.6212 8.29543 11.7771 7.65891 12.0889 7.09357C12.4006 6.52823 12.8156 6.07881 13.3338 5.7453C13.852 5.41179 14.4228 5.24503 15.0464 5.24503C15.6783 5.24503 16.2534 5.40772 16.7715 5.73309C17.2898 6.05846 17.7027 6.50382 18.0102 7.06917C18.3177 7.63451 18.4714 8.27103 18.4714 8.97872C18.4714 9.69454 18.3156 10.3473 18.0038 10.9371C17.6921 11.5268 17.2771 11.9966 16.7589 12.3464C16.2407 12.6961 15.6699 12.871 15.0464 12.871Z" fill="#111111"/>
</svg>
