<svg width="21" height="22" viewBox="0 0 21 22" fill="none" xmlns="http://www.w3.org/2000/svg">
<g clip-path="url(#clip0_629_587)">
<path d="M0.448323 10.4554C0.447831 12.2336 0.912455 13.9699 1.79593 15.5002L0.363831 20.7291L5.71489 19.326C7.19493 20.1317 8.8532 20.5539 10.5383 20.554H10.5428C16.1057 20.554 20.6341 16.0273 20.6365 10.4634C20.6375 7.76724 19.5885 5.23198 17.6826 3.32459C15.777 1.41737 13.2427 0.366465 10.5423 0.365234C4.97874 0.365234 0.450702 4.89172 0.448405 10.4554" fill="url(#paint0_linear_629_587)"/>
<path d="M0.0877734 10.4521C0.0871992 12.2943 0.568476 14.0926 1.48345 15.6778L0 21.0941L5.54293 19.6407C7.07019 20.4734 8.78973 20.9125 10.5395 20.9131H10.544C16.3065 20.9131 20.9975 16.2236 21 10.4605C21.001 7.66746 19.9142 5.04107 17.9402 3.06534C15.966 1.08987 13.341 0.00114844 10.544 0C4.78045 0 0.0900703 4.68891 0.0877734 10.4521ZM3.38879 15.4048L3.18183 15.0763C2.3118 13.6929 1.85259 12.0943 1.85325 10.4527C1.85505 5.66253 5.75351 1.76531 10.5473 1.76531C12.8687 1.7663 15.0504 2.67127 16.6914 4.3132C18.3323 5.9553 19.2352 8.13816 19.2346 10.4598C19.2325 15.25 15.3339 19.1477 10.544 19.1477H10.5405C8.98086 19.1469 7.45123 18.7281 6.11723 17.9365L5.79977 17.7483L2.51048 18.6107L3.38879 15.4048Z" fill="url(#paint1_linear_629_587)"/>
<path d="M7.93073 6.08152C7.735 5.64651 7.52902 5.63773 7.34289 5.6301C7.19048 5.62354 7.01624 5.62403 6.84217 5.62403C6.66794 5.62403 6.38485 5.68957 6.14556 5.95084C5.90603 6.21236 5.23108 6.84433 5.23108 8.12968C5.23108 9.41502 6.1673 10.6573 6.29781 10.8318C6.42849 11.0059 8.10521 13.7281 10.7607 14.7753C12.9677 15.6455 13.4168 15.4725 13.8958 15.4288C14.3749 15.3853 15.4416 14.797 15.6592 14.1869C15.877 13.577 15.877 13.0541 15.8117 12.9448C15.7464 12.836 15.5722 12.7706 15.3109 12.64C15.0496 12.5094 13.7651 11.8773 13.5257 11.7901C13.2861 11.703 13.112 11.6595 12.9378 11.9211C12.7635 12.1823 12.2632 12.7706 12.1107 12.9448C11.9584 13.1195 11.8059 13.1412 11.5447 13.0105C11.2833 12.8794 10.4419 12.6039 9.44363 11.7139C8.66696 11.0214 8.14261 10.1663 7.9902 9.90467C7.83779 9.64348 7.97388 9.5019 8.10488 9.37171C8.22227 9.25465 8.36623 9.06664 8.49699 8.91414C8.62725 8.76156 8.67073 8.65271 8.75785 8.47847C8.84505 8.30407 8.80141 8.1515 8.73619 8.02082C8.67073 7.89015 8.16304 6.59807 7.93073 6.08152Z" fill="white"/>
</g>
<defs>
<linearGradient id="paint0_linear_629_587" x1="1014" y1="2036.75" x2="1014" y2="0.365234" gradientUnits="userSpaceOnUse">
<stop stop-color="#1FAF38"/>
<stop offset="1" stop-color="#60D669"/>
</linearGradient>
<linearGradient id="paint1_linear_629_587" x1="1050" y1="2109.41" x2="1050" y2="0" gradientUnits="userSpaceOnUse">
<stop stop-color="#F9F9F9"/>
<stop offset="1" stop-color="white"/>
</linearGradient>
<clipPath id="clip0_629_587">
<rect width="21" height="21.1641" fill="white"/>
</clipPath>
</defs>
</svg>
